<?xml version="1.0" standalone="no"?><svg xmlns="http://www.w3.org/2000/svg" viewBox="0 0 1440 320"><path fill="#f3f4f5" fill-opacity="1" d="M0,160L30,154.7C60,149,120,139,180,122.7C240,107,300,85,360,96C420,107,480,149,540,170.7C600,192,660,192,720,181.3C780,171,840,149,900,160C960,171,1020,213,1080,213.3C1140,213,1200,171,1260,149.3C1320,128,1380,128,1410,128L1440,128L1440,320L1410,320C1380,320,1320,320,1260,320C1200,320,1140,320,1080,320C1020,320,960,320,900,320C840,320,780,320,720,320C660,320,600,320,540,320C480,320,420,320,360,320C300,320,240,320,180,320C120,320,60,320,30,320L0,320Z"></path></svg>