<?xml version="1.0" standalone="no"?><svg xmlns="http://www.w3.org/2000/svg" viewBox="0 0 1440 320"><path fill="#273036" fill-opacity="1" d="M0,128L26.7,128C53.3,128,107,128,160,133.3C213.3,139,267,149,320,133.3C373.3,117,427,75,480,58.7C533.3,43,587,53,640,96C693.3,139,747,213,800,218.7C853.3,224,907,160,960,133.3C1013.3,107,1067,117,1120,128C1173.3,139,1227,149,1280,133.3C1333.3,117,1387,75,1413,53.3L1440,32L1440,320L1413.3,320C1386.7,320,1333,320,1280,320C1226.7,320,1173,320,1120,320C1066.7,320,1013,320,960,320C906.7,320,853,320,800,320C746.7,320,693,320,640,320C586.7,320,533,320,480,320C426.7,320,373,320,320,320C266.7,320,213,320,160,320C106.7,320,53,320,27,320L0,320Z"></path></svg>